G75*
G70*
%OFA0B0*%
%FSLAX24Y24*%
%IPPOS*%
%LPD*%
%AMOC8*
5,1,8,0,0,1.08239X$1,22.5*
%
%ADD10R,0.0236X0.0866*%
%ADD11R,0.0433X0.0394*%
%ADD12R,0.0394X0.0433*%
%ADD13R,0.0276X0.0354*%
%ADD14R,0.0433X0.0591*%
%ADD15R,0.0354X0.0276*%
%ADD16R,0.0710X0.0472*%
%ADD17R,0.0315X0.0315*%
%ADD18R,0.0394X0.0472*%
%ADD19R,0.0472X0.0433*%
%ADD20R,0.0276X0.0157*%
%ADD21R,0.0276X0.0236*%
%ADD22R,0.0630X0.0906*%
%ADD23C,0.0740*%
%ADD24R,0.0866X0.0630*%
%ADD25R,0.0087X0.0157*%
%ADD26C,0.0600*%
%ADD27C,0.0160*%
%ADD28C,0.0240*%
%ADD29C,0.0120*%
D10*
X005147Y003519D03*
X005647Y003519D03*
X006147Y003519D03*
X006647Y003519D03*
X006647Y005566D03*
X006147Y005566D03*
X005647Y005566D03*
X005147Y005566D03*
D11*
X005448Y002460D03*
X006117Y002460D03*
X006184Y001676D03*
X006853Y001676D03*
D12*
X007900Y002448D03*
X007900Y003117D03*
X005475Y007227D03*
X004806Y007227D03*
X011361Y005830D03*
X011361Y005160D03*
D13*
X011664Y012188D03*
X012176Y012188D03*
X012168Y013448D03*
X012164Y013999D03*
X011652Y013999D03*
X011656Y013448D03*
X010920Y012818D03*
X010408Y012818D03*
X010420Y012188D03*
X010932Y012188D03*
D14*
X010924Y003137D03*
X010097Y003137D03*
D15*
X010857Y013491D03*
X010857Y014003D03*
D16*
X011361Y010071D03*
X011361Y008802D03*
X008723Y008802D03*
X008723Y010071D03*
X005133Y010082D03*
X005133Y008813D03*
X001637Y008793D03*
X001637Y010062D03*
D17*
X006637Y010593D03*
X006637Y011184D03*
D18*
X009097Y003192D03*
X008704Y002404D03*
X009491Y002404D03*
D19*
X009524Y012816D03*
X009524Y013505D03*
X008599Y013505D03*
X008599Y012816D03*
D20*
X011849Y012629D03*
X011849Y013023D03*
D21*
X012282Y012826D03*
D22*
X010219Y010436D03*
X010219Y007956D03*
X003015Y007956D03*
X003015Y010436D03*
D23*
X001082Y002219D02*
X001082Y001479D01*
X012345Y001440D02*
X012345Y002180D01*
D24*
X012345Y008093D03*
X012345Y009196D03*
D25*
X009235Y005426D03*
X009038Y005426D03*
X008841Y005426D03*
X008841Y004855D03*
X009038Y004855D03*
X009235Y004855D03*
D26*
X004338Y004708D02*
X003738Y004708D01*
X003738Y005708D02*
X004338Y005708D01*
X004338Y003708D02*
X003738Y003708D01*
D27*
X000621Y003526D02*
X000621Y000739D01*
X009865Y000739D01*
X009865Y001361D01*
X009432Y000928D01*
X005377Y000928D01*
X004511Y001794D01*
X003330Y001794D01*
X002030Y003093D01*
X002030Y008684D01*
X001912Y008802D01*
X001479Y008802D01*
X001204Y008526D01*
X001204Y003841D01*
X001046Y003526D01*
X000621Y003526D01*
X000621Y003429D02*
X002030Y003429D01*
X002030Y003587D02*
X001077Y003587D01*
X001156Y003746D02*
X002030Y003746D01*
X002030Y003904D02*
X001204Y003904D01*
X001204Y004063D02*
X002030Y004063D01*
X002030Y004221D02*
X001204Y004221D01*
X001204Y004380D02*
X002030Y004380D01*
X002030Y004538D02*
X001204Y004538D01*
X001204Y004697D02*
X002030Y004697D01*
X002030Y004855D02*
X001204Y004855D01*
X001204Y005014D02*
X002030Y005014D01*
X002030Y005172D02*
X001204Y005172D01*
X001204Y005331D02*
X002030Y005331D01*
X002030Y005489D02*
X001204Y005489D01*
X001204Y005648D02*
X002030Y005648D01*
X002030Y005806D02*
X001204Y005806D01*
X001204Y005965D02*
X002030Y005965D01*
X002030Y006123D02*
X001204Y006123D01*
X001204Y006282D02*
X002030Y006282D01*
X002030Y006440D02*
X001204Y006440D01*
X001204Y006599D02*
X002030Y006599D01*
X002030Y006757D02*
X001204Y006757D01*
X001204Y006916D02*
X002030Y006916D01*
X002030Y007074D02*
X001204Y007074D01*
X001204Y007233D02*
X002030Y007233D01*
X002030Y007391D02*
X001204Y007391D01*
X001204Y007550D02*
X002030Y007550D01*
X002030Y007708D02*
X001204Y007708D01*
X001204Y007867D02*
X002030Y007867D01*
X002030Y008025D02*
X001204Y008025D01*
X001204Y008184D02*
X002030Y008184D01*
X002030Y008342D02*
X001204Y008342D01*
X001204Y008501D02*
X002030Y008501D01*
X002030Y008659D02*
X001336Y008659D01*
X001637Y008793D02*
X001637Y002034D01*
X001082Y001479D01*
X000621Y001527D02*
X004778Y001527D01*
X004620Y001685D02*
X000621Y001685D01*
X000621Y001844D02*
X003280Y001844D01*
X003122Y002002D02*
X000621Y002002D01*
X000621Y002161D02*
X002963Y002161D01*
X002805Y002319D02*
X000621Y002319D01*
X000621Y002478D02*
X002646Y002478D01*
X002488Y002636D02*
X000621Y002636D01*
X000621Y002795D02*
X002329Y002795D01*
X002171Y002953D02*
X000621Y002953D01*
X000621Y003112D02*
X002030Y003112D01*
X002030Y003270D02*
X000621Y003270D01*
X000621Y001368D02*
X004937Y001368D01*
X005095Y001210D02*
X000621Y001210D01*
X000621Y001051D02*
X005254Y001051D01*
X005416Y001676D02*
X005416Y002428D01*
X005448Y002460D01*
X005456Y002424D02*
X004274Y002424D01*
X004038Y002660D01*
X004038Y003708D01*
X003645Y002936D02*
X002897Y002936D01*
X002503Y003330D01*
X002503Y008605D01*
X002621Y008723D01*
X003684Y008723D01*
X004393Y008015D01*
X004393Y007345D01*
X004511Y007227D01*
X004806Y007227D01*
X004832Y006479D02*
X005147Y006164D01*
X005147Y008799D01*
X005133Y008813D01*
X005475Y007227D02*
X008526Y007227D01*
X008723Y007424D01*
X008723Y008802D01*
X009235Y009668D02*
X009511Y009944D01*
X009727Y009944D01*
X010219Y010436D01*
X009744Y010414D02*
X009514Y010184D01*
X009463Y010184D01*
X009454Y010180D01*
X008448Y010180D01*
X007463Y011164D01*
X007463Y013369D01*
X007778Y013684D01*
X008330Y013684D01*
X009078Y012936D01*
X009668Y012936D01*
X009944Y012660D01*
X009944Y011049D01*
X009838Y011049D01*
X009744Y010955D01*
X009744Y010414D01*
X009733Y010403D02*
X008225Y010403D01*
X008066Y010561D02*
X009744Y010561D01*
X009744Y010720D02*
X007908Y010720D01*
X007749Y010878D02*
X009744Y010878D01*
X009826Y011037D02*
X007591Y011037D01*
X007463Y011195D02*
X009944Y011195D01*
X009944Y011354D02*
X007463Y011354D01*
X007385Y011282D02*
X006735Y011282D01*
X006637Y011184D01*
X006637Y011501D02*
X006413Y011501D01*
X006319Y011408D01*
X006319Y010960D01*
X006391Y010889D01*
X006319Y010817D01*
X006319Y010813D01*
X005553Y010813D01*
X005353Y010613D01*
X002857Y010613D01*
X002660Y010810D01*
X002660Y013448D01*
X002936Y013723D01*
X006440Y013723D01*
X006794Y013369D01*
X006794Y011522D01*
X006687Y011522D01*
X006637Y011501D01*
X006663Y011512D02*
X002660Y011512D01*
X002660Y011354D02*
X006319Y011354D01*
X006319Y011195D02*
X002660Y011195D01*
X002660Y011037D02*
X006319Y011037D01*
X006282Y010889D02*
X006952Y010889D01*
X007070Y010771D01*
X007070Y009826D01*
X007227Y009668D01*
X009235Y009668D01*
X009575Y010244D02*
X008383Y010244D01*
X008597Y010071D02*
X007385Y011282D01*
X007463Y011512D02*
X009944Y011512D01*
X009944Y011671D02*
X007463Y011671D01*
X007463Y011829D02*
X009944Y011829D01*
X009944Y011988D02*
X007463Y011988D01*
X007463Y012146D02*
X009944Y012146D01*
X009944Y012305D02*
X007463Y012305D01*
X007463Y012463D02*
X009944Y012463D01*
X009944Y012622D02*
X007463Y012622D01*
X007463Y012780D02*
X009824Y012780D01*
X009524Y012816D02*
X008599Y012816D01*
X008599Y013505D01*
X008599Y013414D02*
X007509Y013414D01*
X007463Y013256D02*
X008758Y013256D01*
X008916Y013097D02*
X007463Y013097D01*
X007463Y012939D02*
X009075Y012939D01*
X009538Y013491D02*
X009987Y013491D01*
X010495Y013999D01*
X010853Y013999D01*
X010857Y014003D01*
X010861Y013999D01*
X011086Y013999D01*
X011204Y013881D01*
X011204Y013172D01*
X011353Y013023D01*
X011849Y013023D01*
X010857Y013298D02*
X010652Y013093D01*
X010652Y011873D01*
X011204Y011322D01*
X011204Y010228D01*
X011361Y010071D01*
X011361Y008802D02*
X011282Y008723D01*
X011282Y007385D01*
X010141Y006243D01*
X006873Y006243D01*
X006647Y006017D01*
X006647Y005566D01*
X006519Y004550D02*
X005298Y004550D01*
X004668Y005180D01*
X004668Y005456D01*
X004432Y005692D01*
X004054Y005692D01*
X004038Y005708D01*
X003448Y006479D02*
X004832Y006479D01*
X005147Y006164D02*
X005147Y005566D01*
X004865Y004235D02*
X005141Y003960D01*
X005141Y003524D01*
X005147Y003519D01*
X005147Y003139D01*
X005647Y003519D02*
X005647Y002615D01*
X005456Y002424D01*
X005416Y001676D02*
X006184Y001676D01*
X006164Y001656D01*
X006647Y003519D02*
X006647Y004422D01*
X006519Y004550D01*
X006637Y003802D02*
X006676Y003763D01*
X004865Y004235D02*
X003054Y004235D01*
X002936Y004353D01*
X002936Y007877D01*
X003015Y007956D01*
X003448Y006479D02*
X003251Y006282D01*
X003251Y005141D01*
X003684Y004708D01*
X004038Y004708D01*
X003645Y002936D02*
X004156Y002424D01*
X004274Y002424D01*
X000621Y000893D02*
X009865Y000893D01*
X009865Y001051D02*
X009555Y001051D01*
X009714Y001210D02*
X009865Y001210D01*
X010967Y001210D02*
X012653Y001210D01*
X012653Y001368D02*
X010967Y001368D01*
X010967Y001527D02*
X012653Y001527D01*
X012653Y001685D02*
X010967Y001685D01*
X010967Y001844D02*
X012653Y001844D01*
X012653Y002002D02*
X010967Y002002D01*
X010967Y002161D02*
X012653Y002161D01*
X012653Y002319D02*
X010967Y002319D01*
X010967Y002478D02*
X012653Y002478D01*
X012653Y002636D02*
X010967Y002636D01*
X010967Y002795D02*
X012653Y002795D01*
X012653Y002953D02*
X010967Y002953D01*
X010967Y003112D02*
X012653Y003112D01*
X012653Y003270D02*
X010967Y003270D01*
X010967Y003429D02*
X012653Y003429D01*
X012653Y003587D02*
X011068Y003587D01*
X010967Y003487D02*
X010967Y000739D01*
X012653Y000739D01*
X012653Y007936D01*
X012109Y007936D01*
X011991Y007818D01*
X011991Y005452D01*
X012054Y005389D01*
X012054Y004774D01*
X011991Y004711D01*
X011991Y004078D01*
X011676Y003763D01*
X011243Y003763D01*
X010967Y003487D01*
X011226Y003746D02*
X012653Y003746D01*
X012653Y003904D02*
X011818Y003904D01*
X011976Y004063D02*
X012653Y004063D01*
X012653Y004221D02*
X011991Y004221D01*
X011991Y004380D02*
X012653Y004380D01*
X012653Y004538D02*
X011991Y004538D01*
X011991Y004697D02*
X012653Y004697D01*
X012653Y004855D02*
X012054Y004855D01*
X012054Y005014D02*
X012653Y005014D01*
X012653Y005172D02*
X012054Y005172D01*
X012054Y005331D02*
X012653Y005331D01*
X012653Y005489D02*
X011991Y005489D01*
X011991Y005648D02*
X012653Y005648D01*
X012653Y005806D02*
X011991Y005806D01*
X011991Y005965D02*
X012653Y005965D01*
X012653Y006123D02*
X011991Y006123D01*
X011991Y006282D02*
X012653Y006282D01*
X012653Y006440D02*
X011991Y006440D01*
X011991Y006599D02*
X012653Y006599D01*
X012653Y006757D02*
X011991Y006757D01*
X011991Y006916D02*
X012653Y006916D01*
X012653Y007074D02*
X011991Y007074D01*
X011991Y007233D02*
X012653Y007233D01*
X012653Y007391D02*
X011991Y007391D01*
X011991Y007550D02*
X012653Y007550D01*
X012653Y007708D02*
X011991Y007708D01*
X012040Y007867D02*
X012653Y007867D01*
X008723Y010071D02*
X008597Y010071D01*
X006794Y011671D02*
X002660Y011671D01*
X002660Y011829D02*
X006794Y011829D01*
X006794Y011988D02*
X002660Y011988D01*
X002660Y012146D02*
X006794Y012146D01*
X006794Y012305D02*
X002660Y012305D01*
X002660Y012463D02*
X006794Y012463D01*
X006794Y012622D02*
X002660Y012622D01*
X002660Y012780D02*
X006794Y012780D01*
X006794Y012939D02*
X002660Y012939D01*
X002660Y013097D02*
X006794Y013097D01*
X006794Y013256D02*
X002660Y013256D01*
X002660Y013414D02*
X006749Y013414D01*
X006590Y013573D02*
X002785Y013573D01*
X003330Y011243D02*
X005928Y011243D01*
X006282Y010889D01*
X006380Y010878D02*
X002660Y010878D01*
X002750Y010720D02*
X005460Y010720D01*
X003330Y011243D02*
X003015Y010928D01*
X003015Y010436D01*
X002011Y010436D01*
X001637Y010062D01*
X007667Y013573D02*
X008441Y013573D01*
X010857Y013491D02*
X010857Y013298D01*
X010967Y001051D02*
X012653Y001051D01*
X012653Y000893D02*
X010967Y000893D01*
D28*
X012345Y001440D02*
X012345Y005928D01*
X012247Y005830D01*
X011361Y005830D01*
X012345Y005928D02*
X012345Y008093D01*
X010259Y007916D02*
X010259Y007542D01*
X009393Y006676D01*
X005889Y006676D01*
X005647Y006434D01*
X005647Y005566D01*
X005647Y003519D02*
X005647Y002658D01*
X005448Y002460D01*
X006117Y002460D02*
X006147Y002489D01*
X006147Y003519D01*
X006647Y003519D02*
X006647Y003054D01*
X006710Y003117D01*
X007900Y003117D01*
X007975Y003192D01*
X009097Y003192D01*
X010003Y003192D01*
X010097Y003137D01*
X008704Y002404D02*
X007944Y002404D01*
X007900Y002448D01*
X007778Y002326D01*
X007778Y001755D01*
X007267Y001243D01*
X006361Y001243D01*
X006164Y001440D01*
X006164Y001656D01*
X006647Y001883D02*
X006853Y001676D01*
X006647Y001883D02*
X006647Y003054D01*
X010259Y007916D02*
X010219Y007956D01*
X001125Y000731D02*
X001082Y000774D01*
X001082Y001479D01*
D29*
X001196Y000889D02*
X001082Y000774D01*
X001196Y000889D02*
X009353Y000889D01*
X010613Y002149D01*
X010613Y003999D01*
X011046Y004432D01*
X011400Y004432D01*
X011834Y004865D01*
X011834Y005298D01*
X011637Y005495D01*
X010849Y005495D01*
X010780Y005426D01*
X009235Y005426D01*
X009038Y005426D02*
X008841Y005426D01*
X008960Y005141D02*
X009038Y005062D01*
X009038Y004855D01*
X009235Y004855D02*
X010406Y004855D01*
X010416Y004865D01*
X010416Y002267D01*
X010062Y001912D01*
X008881Y001912D01*
X008645Y002149D01*
X008645Y002345D01*
X008704Y002404D01*
X009097Y003192D02*
X008841Y003448D01*
X008841Y004855D01*
X008960Y005141D02*
X008015Y005141D01*
X007739Y004865D01*
X006243Y004865D01*
X006125Y004983D01*
X006125Y005544D01*
X006147Y005566D01*
X009235Y004855D02*
X011056Y004855D01*
X011361Y005160D01*
X010924Y003137D02*
X010810Y003054D01*
X012227Y003054D01*
X012345Y002936D01*
X012345Y001440D01*
X012345Y009196D02*
X012424Y009274D01*
X012424Y009668D01*
X012503Y009786D01*
X012503Y013251D01*
X012345Y013448D01*
X012503Y013448D01*
X012739Y013172D01*
X012739Y009471D01*
X012621Y009314D01*
X012582Y009432D02*
X009471Y009432D01*
X009708Y009668D01*
X012385Y009668D01*
X012345Y009196D02*
X012857Y009196D01*
X012975Y009314D01*
X012975Y012188D01*
X012176Y012188D01*
X011849Y012629D02*
X011684Y012629D01*
X011597Y012542D01*
X011597Y012255D01*
X011664Y012188D01*
X010932Y012188D01*
X010932Y012806D01*
X010920Y012818D01*
X010420Y012806D02*
X010420Y012188D01*
X010420Y012806D02*
X010408Y012818D01*
X009526Y012818D01*
X009524Y012816D01*
X008599Y012816D02*
X008440Y012975D01*
X006637Y010593D02*
X005645Y010593D01*
X005133Y010082D01*
X006597Y009668D02*
X006834Y009432D01*
X009471Y009432D01*
X006834Y009432D02*
X000810Y009432D01*
X000534Y009668D01*
X000534Y016952D01*
X000810Y017188D01*
X012542Y017188D01*
X012739Y016991D01*
X012739Y014078D01*
X012700Y014038D01*
X012424Y014038D01*
X012503Y014156D01*
X012503Y016834D01*
X012385Y016952D01*
X000967Y016952D01*
X000771Y016755D01*
X000771Y009904D01*
X001007Y009668D01*
X006597Y009668D01*
X011656Y013448D02*
X011656Y013995D01*
X011652Y013999D01*
X012164Y013999D02*
X012164Y014015D01*
X012188Y014038D01*
X012424Y014038D01*
X012168Y013995D02*
X012164Y013999D01*
X012168Y013995D02*
X012168Y013448D01*
X012149Y013448D02*
X012188Y013448D01*
X012345Y013448D01*
X012227Y013487D02*
X012188Y013448D01*
X012227Y013487D02*
X012739Y013487D01*
X012975Y013251D01*
X012975Y012818D01*
X012967Y012826D01*
X012282Y012826D01*
X012975Y012818D02*
X012975Y012188D01*
X012739Y014078D02*
X012975Y014314D01*
X012975Y017188D01*
X012739Y017424D01*
X000534Y017424D01*
X000298Y017188D01*
X000298Y009471D01*
X000574Y009196D01*
X012345Y009196D01*
M02*
